<svg xmlns="http://www.w3.org/2000/svg" viewBox="0 0 300 260" width="300" height="260"><style>
.shell{fill:#dfe9d8;stroke:#3c5a3c;stroke-width:1.2}
.belly{fill:#f4efe2;stroke:#3c5a3c;stroke-width:1}
.sensor{fill:#6b7cff;fill-opacity:.55;stroke:#3440a0;stroke-width:.6}
.fov{fill:#ffb347;fill-opacity:.18;stroke:#d9822b;stroke-width:.8;stroke-dasharray:3 2}
.eye{fill:#1d2330;stroke:#1d2330}
.eyeglint{fill:#ffffff}
.axis{fill:none;stroke:#b3261e;stroke-width:1}
.label{font:10px sans-serif;fill:#333}
.title{font:bold 12px sans-serif;fill:#111}
.floor{stroke:#999;stroke-width:1}
.body{fill:none;stroke:#8fae8a;stroke-linecap:round;stroke-linejoin:round}
.spine{fill:none;stroke:#3c5a3c;stroke-width:1.2}
.obj{fill:#e0b400;stroke:#7a6200}
.person{fill:#b3261e;fill-opacity:.8}
.childm{fill:#e46aa0}
</style><text class="title" x="8" y="14">H2 Wedge（写実寄り） — 側面</text><line class="floor" x1="0" y1="220.0" x2="297.0" y2="220.0"/><polygon class="shell" points="28.6,132.0 44.0,123.2 77.0,110.0 121.0,96.8 165.0,85.8 209.0,83.6 242.0,88.0 257.4,92.4 257.4,198.0 242.0,206.8 209.0,211.2 165.0,213.4 121.0,213.4 77.0,213.4 44.0,213.4 28.6,211.2"/><rect class="sensor" x="37.4" y="136.4" width="33.0" height="35.2"/><rect class="sensor" x="37.4" y="99.0" width="4.4" height="28.6"/><rect class="sensor" x="165.0" y="204.6" width="39.6" height="4.4"/><rect class="sensor" x="37.4" y="200.2" width="11.0" height="8.8"/><rect class="sensor" x="37.4" y="200.2" width="11.0" height="8.8"/><rect class="sensor" x="37.4" y="151.8" width="8.8" height="13.2"/><rect class="sensor" x="37.4" y="66.0" width="17.6" height="17.6"/><rect class="sensor" x="165.0" y="59.4" width="22.0" height="6.6"/><rect class="sensor" x="41.8" y="209.0" width="66.0" height="11.0"/><polygon class="fov" points="37.4,154.0 -26.3,220.0 -270.6,175.5"/><circle class="eye" cx="107.8" cy="110.0" r="16.7"/><circle class="eyeglint" cx="104.8" cy="106.0" r="2.5"/><circle class="axis" cx="205.0" cy="148.8" r="4"/><text class="label" x="211.0" y="152.8">J1</text><text class="label" x="8" y="236.0">青 = センサー参照箱（Engineering の位置）、橙 = カメラ視錐台（ASSUMED FOV）</text></svg>