<svg xmlns="http://www.w3.org/2000/svg" viewBox="0 0 300 260" width="300" height="260"><style>
.shell{fill:#dfe9d8;stroke:#3c5a3c;stroke-width:1.2}
.belly{fill:#f4efe2;stroke:#3c5a3c;stroke-width:1}
.sensor{fill:#6b7cff;fill-opacity:.55;stroke:#3440a0;stroke-width:.6}
.fov{fill:#ffb347;fill-opacity:.18;stroke:#d9822b;stroke-width:.8;stroke-dasharray:3 2}
.eye{fill:#1d2330;stroke:#1d2330}
.eyeglint{fill:#ffffff}
.axis{fill:none;stroke:#b3261e;stroke-width:1}
.label{font:10px sans-serif;fill:#333}
.title{font:bold 12px sans-serif;fill:#111}
.floor{stroke:#999;stroke-width:1}
.body{fill:none;stroke:#8fae8a;stroke-linecap:round;stroke-linejoin:round}
.spine{fill:none;stroke:#3c5a3c;stroke-width:1.2}
.obj{fill:#e0b400;stroke:#7a6200}
.person{fill:#b3261e;fill-opacity:.8}
.childm{fill:#e46aa0}
</style><text class="title" x="8" y="14">H2 — 正面（胴の輪郭は点線）</text><rect x="48.8" y="13.2" width="202.4" height="206.8" rx="60" fill="none" stroke="#999" stroke-dasharray="4 3"/><polygon class="shell" points="150.0,213.4 179.1,211.8 188.1,210.1 194.5,208.5 199.5,206.8 203.7,205.2 207.3,203.5 210.5,201.9 213.3,200.3 215.7,198.6 218.0,197.0 220.0,195.3 221.9,193.7 223.6,192.0 225.1,190.4 226.5,188.8 227.8,187.1 229.0,185.5 230.0,183.8 231.0,182.2 231.9,180.5 232.7,178.9 233.5,177.3 234.1,175.6 234.7,174.0 235.3,172.3 235.7,170.7 236.2,169.0 236.5,167.4 236.8,165.8 237.1,164.1 237.3,162.5 237.5,160.8 237.7,159.2 237.8,157.5 237.9,155.9 237.9,154.3 238.0,152.6 238.0,151.0 238.0,149.3 238.0,147.7 238.0,146.0 237.9,144.4 237.9,142.7 237.8,141.1 237.6,139.5 237.5,137.8 237.3,136.2 237.0,134.5 236.7,132.9 236.4,131.2 236.0,129.6 235.6,128.0 235.1,126.3 234.5,124.7 233.9,123.0 233.2,121.4 232.5,119.7 231.6,118.1 230.7,116.5 229.7,114.8 228.6,113.2 227.4,111.5 226.0,109.9 224.6,108.2 223.0,106.6 221.3,105.0 219.4,103.3 217.3,101.7 214.9,100.0 212.5,98.4 210.1,96.7 207.4,95.1 204.4,93.5 201.0,91.8 197.0,90.2 192.1,88.5 186.0,86.9 177.4,85.2 150.0,83.6 150.0,83.6 122.6,85.2 114.0,86.9 107.9,88.5 103.0,90.2 99.0,91.8 95.6,93.5 92.6,95.1 89.9,96.7 87.5,98.4 85.1,100.0 82.7,101.7 80.6,103.3 78.7,105.0 77.0,106.6 75.4,108.2 74.0,109.9 72.6,111.5 71.4,113.2 70.3,114.8 69.3,116.5 68.4,118.1 67.5,119.7 66.8,121.4 66.1,123.0 65.5,124.7 64.9,126.3 64.4,128.0 64.0,129.6 63.6,131.2 63.3,132.9 63.0,134.5 62.7,136.2 62.5,137.8 62.4,139.5 62.2,141.1 62.1,142.7 62.1,144.4 62.0,146.0 62.0,147.7 62.0,149.3 62.0,151.0 62.0,152.6 62.1,154.3 62.1,155.9 62.2,157.5 62.3,159.2 62.5,160.8 62.7,162.5 62.9,164.1 63.2,165.8 63.5,167.4 63.8,169.0 64.3,170.7 64.7,172.3 65.3,174.0 65.9,175.6 66.5,177.3 67.3,178.9 68.1,180.5 69.0,182.2 70.0,183.8 71.0,185.5 72.2,187.1 73.5,188.8 74.9,190.4 76.4,192.0 78.1,193.7 80.0,195.3 82.0,197.0 84.3,198.6 86.7,200.3 89.5,201.9 92.7,203.5 96.3,205.2 100.5,206.8 105.5,208.5 111.9,210.1 120.9,211.8 150.0,213.4"/><rect class="sensor" x="126.9" y="136.4" width="46.2" height="35.2"/><rect class="sensor" x="130.2" y="99.0" width="39.6" height="28.6"/><rect class="sensor" x="101.6" y="200.2" width="15.4" height="8.8"/><rect class="sensor" x="183.0" y="200.2" width="15.4" height="8.8"/><rect class="sensor" x="174.2" y="151.8" width="13.2" height="13.2"/><rect class="sensor" x="132.4" y="66.0" width="35.2" height="17.6"/><ellipse class="eye" cx="231.4" cy="110.0" rx="5.3" ry="17.6"/><circle class="eyeglint" cx="229.4" cy="106.0" r="2.5"/><ellipse class="eye" cx="68.6" cy="110.0" rx="5.3" ry="17.6"/><circle class="eyeglint" cx="66.6" cy="106.0" r="2.5"/></svg>